/* XPM */
static char *result[] = {
/* columns rows colors chars-per-pixel */
"32 32 4 1 ",
"  c #72751B",
". c #7F8226",
"X c #787B21",
"o c #656C17",
/* pixels */
"                                ",
"                                ",
"                                ",
"          ..                    ",
"           .X    .              ",
"           XXX X.               ",
"        .XXoXXXXo               ",
"         XXXooXXo               ",
"         oXX  Xo                ",
"          oX                    ",
"                            .X  ",
"                       .X  X.o  ",
"                       oXX XX   ",
"                        oXXXo   ",
"                        oXXo    ",
"                         oX     ",
"                                ",
"                                ",
"                                ",
"                                ",
"                                ",
"                                ",
"                                ",
"                                ",
"                                ",
"                                ",
"                                ",
"                                ",
"                                ",
"                                ",
"                                ",
"                                "
};
