/* XPM */
static char *result[] = {
/* columns rows colors chars-per-pixel */
"32 32 13 1 ",
"  c #72751B",
". c #7F8226",
"X c #3C1407",
"o c #602B15",
"O c #7C3D20",
"+ c #905D2A",
"@ c #BF9A5C",
"# c #787B21",
"$ c #656C17",
"% c #B2894E",
"& c #5C4F39",
"* c #AF9585",
"= c #E6CABE",
/* pixels */
"                                ",
"                                ",
"                                ",
"          .. XXXXXX             ",
"           XXooooooXX           ",
"         XXOOOOOOooooXX         ",
"        XoO++++OOOOooooX        ",
"       XoO++@@++OO++ooo+X       ",
"      XoO+@@@@@+OO++@ooo+X      ",
"      Xo+@@@@@@++OO++@ooo+X     ",
"     XoO+@@@@@+++OOO+@ooooX .#  ",
"     XoO+@@@+++++OOO+++oooX#.$  ",
"     Xo++@+++++OOOOOO++ooooX#   ",
"    Xoo++++++OOOOOOOOOOOoooX$   ",
"    XoO++OO++OOOOOOOOOOOoooX    ",
"    X%OOO+OOOOOOOO%O++OOoo+X    ",
"    X%%O+++OO++OOOO%%++ooo+X    ",
"     X%%%+OOO+++OoO+%%+oo+X     ",
"      X%@%%OOO++OooO+%%oXX      ",
"       XX@@%%%OOoooOoo%X        ",
"         XXX@@%%%ooooXX         ",
"          &*XXXXXXXXX&          ",
"           &*********&          ",
"           &==*******&          ",
"           &=======***&         ",
"          &=========**&         ",
"          &==*=======**&        ",
"          &=**==*====**&        ",
"           &&**=***==&&         ",
"             &&&&&&&&           ",
"                                ",
"                                "
};
