/* XPM */
static char *result[] = {
/* columns rows colors chars-per-pixel */
"32 32 13 1 ",
"  c #72751B",
". c #7F8226",
"X c #6B3316",
"o c #C4814E",
"O c #A8643B",
"+ c #4F1C04",
"@ c #8E522C",
"# c #DEA360",
"$ c #FDC876",
"% c #FFEF97",
"& c #787B21",
"* c #656C17",
"= c #BA6F65",
/* pixels */
"                                ",
"                                ",
"                                ",
"          .. XXXXX              ",
"           XXooooOXX            ",
"          XooooooOOO+           ",
"        .XooooooooOO@+          ",
"        Xoo####oooOOO@+         ",
"        Xo######oooOO@+         ",
"       Xo###$$###oooOO@+        ",
"       Xo##$%%$##oooOO@+    .&  ",
"      Xo###$%%$###oooO@@+  &.*  ",
"      Xo###$$$$###oooOO@+& &&   ",
"      Xo####$$####ooooO@+&&&*   ",
"     Xoo##########ooooO@@+&*    ",
"     Xoo##########ooooOO@+&     ",
"     Xoo##########ooooOO@+      ",
"     XOoo########oooooOOO+      ",
"     XOoo#######oooooOOO=+      ",
"     XOoooo####ooooooOOO=+      ",
"     XOOoooooooooooooOOO=+      ",
"     X@OOoooooooooooOOOO=+      ",
"     X@@OooooooooooOOOOO=+      ",
"      +@OOooooooooOOOOO=+       ",
"      +@OOOOOoooOOOOOOO=+       ",
"      +@OOOOOOOOOOOOOO==+       ",
"       +@OOOOOOOOOOOO==+        ",
"        +@OOOOOOOOO===+         ",
"         ++@@@OOO===++          ",
"           +++++++++            ",
"                                ",
"                                "
};
