/* XPM */
static char *result[] = {
/* columns rows colors chars-per-pixel */
"32 32 13 1 ",
"  c #72751B",
". c #7F8226",
"X c #787B21",
"o c #656C17",
"O c #8AA7BD",
"+ c #A7CBDB",
"@ c #D7F1F2",
"# c #FAFEEE",
"$ c #FFB917",
"% c #E77B08",
"& c #FFEE59",
"* c #BF5802",
"= c #C3EBF4",
/* pixels */
"                                ",
"                                ",
"                                ",
"          ..                    ",
"           .X    .              ",
"           XXX X.               ",
"        .XXoXXXXo               ",
"         XXXooXXo               ",
"         oXX  Xo     O+++       ",
"          oX      OOO@@@@+      ",
"            +++OOO@@@@@@@@+ .X  ",
"           +##########@@@@@O.o  ",
"          +#########@###@@@OX   ",
"        OO####$$%%########@@O   ",
"      OO####$$&&$%%%#######@O   ",
"     O#####$$&&$$$%%%@#####@@O  ",
"    +##@###%$&&$$$%%*@@#####@O  ",
"   +#######%%$$$$%%**@@##@@##O  ",
"   +#######**%%%%%***@@######O  ",
"  +#########=**%***@@@######O   ",
"  +###@@######@@@@@@########O   ",
"  +#@##@@@#############@@##O    ",
"  +#####@@@@@@######@@@@##O     ",
"   ++######@@###@@@@@@@#OO      ",
"     OO#######@###@@###O        ",
"       OOOOO#########OO         ",
"            OOO++++OO           ",
"                                ",
"                                ",
"                                ",
"                                ",
"                                "
};
