/* XPM */
static char *result[] = {
/* columns rows colors chars-per-pixel */
"32 32 9 1 ",
"  c #390C14",
". c #656C17",
"X c #72751B",
"o c #787B21",
"O c #AC4427",
"+ c #D96624",
"@ c #7F8226",
"# c #FC8E26",
"$ c #FCBA62",
/* pixels */
"XXXXXXXXXXXXXXXXXXXXXXXXXXXXXXXX",
"XXXXXXXXXXXXXXXXXXXXXXXXXXXXXXXX",
"XXXXXXXXXXXXXXXXXXXXXXXXXXXXXXXX",
"XXXXXXXXXX@@XXXXXXXXXXXXXXXXXXXX",
"XXXXXXXXXXX@oXXXX@XXXXXXXXXXXXXX",
"XXXXXXXXXXXoooXo@XXXXXXXXXXXXXXX",
"XXXXXXXX@oo.oooo.XXXXXXXXXXXXXXX",
"XXXXXXXXXooo..oo.XXXXXXXXXXXXXXX",
"XXXXXXXXX.ooXXo.XXXXXXXXXXXXXXXX",
"XXXXXXXXXX.oXXXXXXXXXXXXXXXXXXXX",
"XXXXXX++++++XXXXXXXXXXXXXXXX@oXX",
"XXXXXX++++++XXXXXXXXXXX@oXXo@.XX",
"XXXX++++++++++XXXX##XX##ooXooXXX",
"XXXX++++++++++XXXX##XX##.ooo.XXX",
"XXXX++OO++++++XXXX##$$$$##o.XXXX",
"XXXX++OO++++++XXXX##$$$$##oXXXXX",
"XX++OO++OO++++XXXXXX$$  ####OOXX",
"XX++OO++OO++++XXXXXX$$  ####OOXX",
"XX++++++OO++####XX######$$$$$$XX",
"XX++++++OO++####XX######$$$$$$XX",
"XXXX++OO++++############$$$$XXXX",
"XXXX++OO++++############$$$$XXXX",
"XXXXOO++++######$$$$####XXXXXXXX",
"XXXXOO++++######$$$$####XXXXXXXX",
"XXXXOO++++########$$$$####XXXXXX",
"XXXXOO++++########$$$$####XXXXXX",
"XXXXXXOO++########$$XXXXXX##XXXX",
"XXXXXXOO++########$$XXXXXX##XXXX",
"XXXXXXOO++++######XXXXXXXXXXXXXX",
"XXXXXXOO++++######XXXXXXXXXXXXXX",
"XXXXXXXXXXXX##########XXXXXXXXXX",
"XXXXXXXXXXXX##########XXXXXXXXXX"
};
