/* XPM */
static char *result[] = {
/* columns rows colors chars-per-pixel */
"32 32 215 2 ",
"   c #72751B",
".  c #7F8226",
"X  c #654B1A",
"o  c #644A1A",
"O  c #787B21",
"+  c #664C1A",
"@  c #8C8733",
"#  c #674C1A",
"$  c #674D1A",
"%  c #8D8833",
"&  c #63491A",
"*  c #8E8833",
"=  c #674D1B",
"-  c #838224",
";  c #828123",
":  c #777622",
">  c #767622",
",  c #634919",
"<  c #8E8933",
"1  c #848224",
"2  c #838223",
"3  c #787722",
"4  c #777722",
"5  c #767522",
"6  c #624819",
"7  c #848324",
"8  c #838123",
"9  c #797822",
"0  c #624919",
"q  c #644B1A",
"w  c #8D8733",
"e  c #89862D",
"r  c #89872C",
"t  c #74761D",
"y  c #8F8934",
"u  c #675D1A",
"i  c #665C19",
"p  c #614719",
"a  c #604619",
"s  c #5F4519",
"d  c #888529",
"f  c #8A872E",
"g  c #74751E",
"h  c #685E1A",
"j  c #6D6F1D",
"k  c #6C6E1D",
"l  c #6C6D1D",
"z  c #5E4519",
"x  c #888429",
"c  c #75761D",
"v  c #76771E",
"b  c #75751E",
"n  c #73751E",
"m  c #72731D",
"M  c #656C17",
"N  c #878429",
"B  c #766916",
"V  c #776916",
"C  c #8A872D",
"Z  c #75771D",
"A  c #77781E",
"S  c #77771E",
"D  c #76761E",
"F  c #818023",
"G  c #807F23",
"H  c #7F7E22",
"J  c #655B19",
"K  c #604519",
"L  c #89872D",
"P  c #78771F",
"I  c #8B8632",
"U  c #8A8532",
"Y  c #6E701B",
"T  c #87842D",
"R  c #88842E",
"E  c #89852F",
"W  c #89862C",
"Q  c #8A862D",
"!  c #80741E",
"~  c #7F741E",
"^  c #7F731D",
"/  c #77761E",
"(  c #70711B",
")  c #6E6F1B",
"_  c #6C6F1B",
"`  c #5E4419",
"'  c #7F731E",
"]  c #7E731D",
"[  c #70731C",
"{  c #6E711B",
"}  c #6C6E1B",
"|  c #6B6E1B",
" . c #6A6D1B",
".. c #5D4418",
"X. c #71731C",
"o. c #7F7E23",
"O. c #7E7D22",
"+. c #555915",
"@. c #5C4318",
"#. c #787821",
"$. c #7B7A23",
"%. c #70721C",
"&. c #6A6C1A",
"*. c #7F7F23",
"=. c #7D7D22",
"-. c #6B6D1B",
";. c #555815",
":. c #7B7B25",
">. c #797A23",
",. c #8A8632",
"<. c #696C1A",
"1. c #686B1A",
"2. c #898432",
"3. c #888431",
"4. c #7D7C22",
"5. c #635919",
"6. c #625819",
"7. c #545916",
"8. c #5D4318",
"9. c #686A1B",
"0. c #777721",
"q. c #7A7922",
"w. c #676A1A",
"e. c #6F721C",
"r. c #888331",
"t. c #555A17",
"y. c #5D4417",
"u. c #5F4619",
"i. c #68691B",
"p. c #696A1B",
"a. c #696B1B",
"s. c #898532",
"d. c #6E711C",
"f. c #67691A",
"g. c #6F711C",
"h. c #6D701B",
"j. c #555916",
"k. c #545915",
"l. c #535715",
"z. c #5C4317",
"x. c #6F7021",
"c. c #707021",
"v. c #626418",
"b. c #6D6F1B",
"n. c #575B17",
"m. c #575A17",
"M. c #545815",
"N. c #535815",
"B. c #5C4217",
"V. c #5D4319",
"C. c #6F6F21",
"Z. c #67691B",
"A. c #616318",
"S. c #5A5E17",
"D. c #585213",
"F. c #575213",
"G. c #565917",
"H. c #555917",
"J. c #5C5E17",
"K. c #5B5E17",
"L. c #5D4317",
"P. c #606218",
"I. c #606318",
"U. c #7A7A28",
"Y. c #7B7A28",
"T. c #5D6018",
"R. c #595E18",
"E. c #595D17",
"W. c #585D17",
"Q. c #575212",
"!. c #575112",
"~. c #555816",
"^. c #5B4017",
"/. c #5D4218",
"(. c #7C7A29",
"). c #797928",
"_. c #7A7928",
"`. c #5C5F18",
"'. c #595C17",
"]. c #575C17",
"[. c #565112",
"{. c #636619",
"}. c #545816",
"|. c #5A3F17",
" X c #5C4017",
".X c #5B3F17",
"XX c #5B5E18",
"oX c #5A5D18",
"OX c #595C18",
"+X c #585C17",
"@X c #585B17",
"#X c #553816",
"$X c #565A17",
"%X c #565A16",
"&X c #636519",
"*X c #626519",
"=X c #583A16",
"-X c #593A16",
";X c #593B16",
":X c #593D16",
">X c #5B3D16",
",X c #5B3E16",
"<X c #5A3D16",
"1X c #593B15",
"2X c #575B16",
"3X c #573715",
"4X c #553815",
"5X c #543315",
"6X c #565916",
"7X c #563615",
"8X c #583715",
"9X c #583615",
"0X c #563515",
"qX c #523215",
"wX c #543415",
/* pixels */
"                                                                ",
"                                                                ",
"                                                                ",
"                    . .     X X o                               ",
"                      . O + @ @ @ o                             ",
"                  + # $ O $ % @ @ X   o &                       ",
"                # % % * = - % % ; ; X : > ,                     ",
"                $ * < < 1 1 - - 2 ; 3 4 > 5 6                   ",
"          X + $ - 1 1 7 7 7 1 1 - 8 9 3 : > 0                   ",
"        q @ w % < e r t 7 y < < - 2 ; 3 4 u i p a s             ",
"        X @ w % < d f t t y y < < 2 ; g h u i j k l z   . O     ",
"          + % % x d t t t c y < < 2 v b n m i j k l s O . M     ",
"            + 2 N B V C C Z v < * A S D F G H J k K   O O       ",
"        o X ; 8 - B 7 r L L v v P S S @ I U H Y a O O O M       ",
"      & T R E % 2 - 1 W Q Q ! ~ ^ / v I I U ( ) _ s ` M         ",
"      0 U I @ @ ; 2 % * - ~ ' ^ ] @ @ I U [ { _ } |  ...        ",
"      6 U I I X.X.% % % 2 8 8 ] @ @ I G o.H O._ | |  .+.@.      ",
"        0 #.$.%.X.@ @ &.; ; ; ; @ I I *.H O.=.} | -.+.;...      ",
"      p #.:.>.,.I I <.1.@ @ @ F F G *.H 2.3.4.| 5.6.7.8.        ",
"    a 9.0.0.q.U U ,.w.w.I I I e.G o.Y 2.3.r.} | t.7.y.          ",
"    u.i.9.p.a.2.s.d.f.w.U U g.g.{ Y h.3.r.} | -.j.k.l.z.        ",
"    ` x.c.i.v.v.h.Y Y Y Y Y i Y h.b.b.n.m.|  .j.k.M.N.l.B.      ",
"    V.C.c.Z.A._ _ b.b.b.b.h.S.S.b._ } D.F.G.H.j.J.K.K.K.B.      ",
"      L.8.P.I.U.U.Y.T._ _ R.E.W.} | F.Q.!.t.j.~.K.K.K.^.        ",
"          /.(.)._.U.`.5.5.'.'.].5.Q.!.[.{.{.~.}.K.K.|.          ",
"           X).).)..XXXoXOX+X@Xn.#X$X%X{.&X*X=X-X;X:X            ",
"            >X,X<X  1XE.+X2X3X4X  5X6X*X*X7X                    ",
"                      8X9X0X        qXqXwX                      ",
"                                                                ",
"                                                                ",
"                                                                ",
"                                                                "
};
